<?xml version="1.0" encoding="utf-8"?>
<!-- Generator: Adobe Illustrator 23.1.0, SVG Export Plug-In . SVG Version: 6.00 Build 0)  -->
<svg version="1.1" id="Layer_1" xmlns="http://www.w3.org/2000/svg" xmlns:xlink="http://www.w3.org/1999/xlink" x="0px" y="0px"
	 viewBox="0 0 1920 1080" style="enable-background:new 0 0 1920 1080;" xml:space="preserve">
<style type="text/css">
	.st0{fill-rule:evenodd;clip-rule:evenodd;fill:#008E3B;}
	.st1{fill-rule:evenodd;clip-rule:evenodd;fill:#83B527;}
	.st2{fill-rule:evenodd;clip-rule:evenodd;fill:#FFD200;}
	.st3{fill-rule:evenodd;clip-rule:evenodd;fill:#C3D100;}
</style>
<g>
	<path class="st0" d="M821.73,475.04c0-65.71-30.92-103.81-107.68-103.81c-37.55,0-62.95,3.31-85.59,7.18
		c-7.73,1.1-11.6,4.42-11.6,10.49v19.33c0,7.18,4.97,8.84,9.94,8.84h2.76c22.08-2.21,48.59-4.42,84.48-4.42
		c43.63,0,59.08,16.01,59.08,62.4v22.09h-40.86c-98.84,0-133.08,29.81-133.08,89.46v6.62c0,69.03,43.07,89.46,90.01,89.46
		c30.93,0,58.53-11.6,85.04-27.06v12.15c0,6.07,4.97,11.05,11.04,11.05h25.4c6.08,0,11.04-4.97,11.04-11.05V475.04L821.73,475.04z
		 M773.13,620.82c-26.5,14.91-48.59,22.09-74.54,22.09c-32.58,0-50.8-10.49-50.8-50.25v-6.63c0-39.2,17.67-54.11,84.49-54.11h40.86
		V620.82L773.13,620.82z M1091.07,507.62c0-82.82-38.1-136.39-120.38-136.39c-33.68,0-72.33,5.52-101.6,12.7
		c-10.49,2.21-11.6,5.52-11.6,12.7v379.9c0,6.08,3.87,10.49,9.94,10.49h28.16c6.08,0,10.49-4.42,10.49-10.49v-99.95
		c21.54,3.87,47.48,6.08,64.6,6.08c81.17,0,120.38-48.59,120.38-135.29V507.62L1091.07,507.62z M1042.48,547.38
		c0,59.64-17.12,94.43-71.79,94.43c-17.67,0-46.38-1.66-64.6-5.52V417.62c15.46-2.76,40.86-5.53,64.6-5.53
		c54.67,0,71.79,38.1,71.79,95.53V547.38z"/>
	<polygon class="st1" points="1130.29,315.43 1338.66,307.51 1105.55,401.88 	"/>
	<polygon class="st1" points="1204.86,108.86 1007.06,158.02 1240.19,64 	"/>
	<polygon class="st0" points="1007.01,157.98 1204.78,108.67 1338.58,307.51 1130.25,315.42 	"/>
	<polygon class="st2" points="1204.86,108.86 1240.19,64 1338.66,307.71 	"/>
	<polygon class="st3" points="1007,158.02 1130.29,315.47 1105.55,401.88 	"/>
	<path class="st0" d="M563.63,970.25 M616.84,921.53c0-15.71-7.39-24.82-25.75-24.82c-8.98,0-15.05,0.79-20.46,1.72
		c-1.85,0.26-2.77,1.06-2.77,2.51v4.62c0,1.72,1.19,2.11,2.38,2.11h0.66c5.28-0.53,11.62-1.06,20.2-1.06
		c10.43,0,14.13,3.83,14.13,14.92v5.28h-9.77c-23.63,0-31.82,7.13-31.82,21.39v1.58c0,16.5,10.3,21.39,21.52,21.39
		c7.39,0,14-2.77,20.33-6.47v2.9c0,1.45,1.19,2.64,2.64,2.64h6.07c1.45,0,2.64-1.19,2.64-2.64V921.53L616.84,921.53z M605.22,956.39
		c-6.34,3.57-11.62,5.28-17.82,5.28c-7.79,0-12.15-2.51-12.15-12.02v-1.58c0-9.38,4.22-12.94,20.2-12.94h9.77V956.39L605.22,956.39z
		 M634.8,970.25 M667.41,899.09c0-1.58-0.92-2.38-2.77-2.38c-5.94,0-11.88,1.72-18.62,6.34v-2.77c0-1.45-1.06-2.64-2.51-2.64h-6.21
		c-1.45,0-2.51,1.19-2.51,2.64v67.34c0,1.45,1.06,2.64,2.51,2.64h6.47c1.45,0,2.64-1.19,2.64-2.64v-55.32
		c6.74-4.09,12.02-5.54,18.22-5.54c1.85,0,2.77-0.79,2.77-2.25V899.09L667.41,899.09z M677.57,970.25 M733.42,873.47
		c0-1.45-0.93-2.51-2.38-2.51h-6.73c-1.45,0-2.51,1.06-2.51,2.51v24.56c-5.15-0.93-11.36-1.32-15.45-1.32
		c-19.41,0-28.78,11.62-28.78,32.35v9.5c0,19.67,9.11,32.61,28.78,32.61c8.06,0,15.97-0.66,24.29-2.24c2.51-0.4,2.77-1.32,2.77-3.04
		V873.47L733.42,873.47z M721.81,960.22c-4.62,0.4-10.83,0.79-15.45,0.79c-13.07,0-17.16-8.05-17.16-22.45v-9.5
		c0-14.13,4.36-22.18,17.16-22.18c4.22,0,11.09,0,15.45,0.92V960.22L721.81,960.22z M749.01,970.25 M807.76,928.93
		c0-19.41-9.9-32.21-29.44-32.21c-19.41,0-29.31,12.81-29.31,32.21v10.03c0,19.41,9.9,32.21,29.31,32.21
		c19.54,0,29.44-12.81,29.44-32.21V928.93L807.76,928.93z M796.14,938.96c0,13.73-5.55,22.05-17.82,22.05
		c-12.54,0-17.69-8.45-17.69-22.05v-10.03c0-13.73,5.41-22.05,17.69-22.05c12.54,0,17.82,8.45,17.82,22.05V938.96L796.14,938.96z
		 M819.51,970.25 M879.18,899.88c0-1.45-0.66-2.25-2.11-2.25h-7.26c-1.19,0-1.98,0.79-2.51,2.51l-15.18,57.57
		c-0.92,3.17-1.58,3.83-2.77,3.83c-1.45,0-1.85-0.66-2.77-3.83l-15.18-57.57c-0.53-1.71-1.32-2.51-2.51-2.51h-7.26
		c-1.45,0-2.11,0.79-2.11,2.25c0,0.39,0,0.66,0.13,0.92l17.82,62.85c1.72,5.94,6.21,7.53,11.88,7.53c5.68,0,10.17-1.58,11.88-7.53
		l17.82-62.85C879.18,900.54,879.18,900.28,879.18,899.88L879.18,899.88z M890.67,970.25 M943.88,921.53
		c0-15.71-7.39-24.82-25.75-24.82c-8.98,0-15.05,0.79-20.46,1.72c-1.85,0.26-2.77,1.06-2.77,2.51v4.62c0,1.72,1.19,2.11,2.38,2.11
		h0.66c5.28-0.53,11.62-1.06,20.2-1.06c10.43,0,14.13,3.83,14.13,14.92v5.28h-9.77c-23.63,0-31.82,7.13-31.82,21.39v1.58
		c0,16.5,10.3,21.39,21.52,21.39c7.39,0,14-2.77,20.33-6.47v2.9c0,1.45,1.19,2.64,2.64,2.64h6.07c1.45,0,2.64-1.19,2.64-2.64V921.53
		L943.88,921.53z M932.26,956.39c-6.34,3.57-11.62,5.28-17.82,5.28c-7.79,0-12.15-2.51-12.15-12.02v-1.58
		c0-9.38,4.22-12.94,20.2-12.94h9.77V956.39z"/>
	<path class="st0" d="M990.48,970.25 M1040.52,939.49c0,20.99-8.58,31.55-25.88,31.55c-1.32,0-2.77,0-4.22-0.13
		c-1.58-0.13-3.17-0.26-4.88-0.4c-1.72-0.13-3.3-0.4-4.89-0.66c-1.58-0.26-3.04-0.53-4.36-0.79v24.42c0,0.66-0.13,1.32-0.53,1.85
		c-0.4,0.4-1.06,0.66-1.72,0.66h-1.32c-0.66,0-1.19-0.26-1.58-0.66c-0.39-0.53-0.66-1.19-0.66-1.85v-89.78
		c0-0.79,0.13-1.32,0.39-1.72c0.26-0.4,0.79-0.66,1.58-0.79c2.9-0.66,6.34-1.19,10.43-1.72c4.1-0.53,7.92-0.79,11.75-0.79
		c4.62,0,8.45,0.79,11.75,2.25c3.3,1.58,5.94,3.83,8.06,6.6c2.11,2.9,3.7,6.34,4.62,10.17c0.92,3.96,1.45,8.32,1.45,13.07V939.49
		L1040.52,939.49z M1034.71,930.78c0-8.58-1.45-15.18-4.49-19.94c-3.04-4.62-8.19-7-15.58-7c-3.17,0-6.47,0.13-9.77,0.53
		c-3.3,0.39-6.21,0.79-8.58,1.19v58.62c1.19,0.26,2.64,0.53,4.22,0.66c1.58,0.26,3.17,0.39,4.89,0.53c1.72,0.13,3.3,0.26,4.88,0.4
		c1.58,0.13,3.04,0.13,4.36,0.13c7.26,0,12.54-2.25,15.58-6.6c3.04-4.36,4.49-10.96,4.49-19.8V930.78L1034.71,930.78z
		 M1058.34,970.25 M1064.15,967.75c0,0.66-0.13,1.32-0.53,1.72c-0.39,0.53-1.06,0.79-1.72,0.79h-1.32c-0.66,0-1.19-0.26-1.58-0.79
		c-0.39-0.4-0.66-1.06-0.66-1.72v-93.08c0-0.66,0.26-1.32,0.66-1.85c0.4-0.4,0.93-0.66,1.58-0.66h1.32c0.66,0,1.32,0.26,1.72,0.66
		c0.4,0.53,0.53,1.19,0.53,1.85V967.75L1064.15,967.75z M1081.98,970.25 M1126.6,967.48c0,0.66-0.13,1.19-0.53,1.58
		c-0.39,0.4-1.06,0.66-1.98,0.79c-2.78,0.4-5.68,0.66-8.45,0.93c-2.9,0.13-5.41,0.26-7.53,0.26c-4.75,0-8.71-0.92-12.01-2.64
		c-3.3-1.72-6.07-3.96-8.06-6.86c-2.11-2.9-3.7-6.34-4.62-10.17c-0.92-3.83-1.45-7.92-1.45-12.28v-8.85c0-4.36,0.53-8.58,1.45-12.41
		c0.92-3.83,2.51-7.13,4.62-10.03c1.98-2.77,4.75-5.02,8.06-6.73c3.3-1.58,7.26-2.38,12.01-2.38c2.11,0,4.62,0.13,7.53,0.26
		c2.77,0.26,5.68,0.53,8.45,0.93c0.92,0.13,1.58,0.39,1.98,0.79c0.4,0.4,0.53,0.92,0.53,1.58v0.92c0,1.19-0.66,1.85-2.11,1.85h-0.66
		c-6.21-0.79-11.36-1.19-15.71-1.19c-3.83,0-7,0.66-9.5,1.85c-2.64,1.19-4.75,3.04-6.34,5.28c-1.58,2.38-2.77,5.15-3.43,8.45
		c-0.66,3.3-1.06,6.87-1.06,10.83v8.85c0,3.96,0.4,7.53,1.06,10.83c0.66,3.3,1.85,6.21,3.43,8.58s3.7,4.22,6.34,5.41
		c2.51,1.32,5.68,1.98,9.5,1.98c4.36,0,9.51-0.4,15.71-1.19h0.66c1.45,0,2.11,0.66,2.11,1.85V967.48z"/>
</g>
</svg>
