<svg id="Dark_Mode_Copy" data-name="Dark Mode  Copy" xmlns="http://www.w3.org/2000/svg" xmlns:xlink="http://www.w3.org/1999/xlink" width="37" height="37" viewBox="0 0 37 37">
  <defs>
    <clipPath id="clip-path">
      <rect id="Rectangle" width="37" height="37" fill="#121212"/>
    </clipPath>
  </defs>
  <g id="Group_13_Copy_3" data-name="Group 13 Copy 3">
    <rect id="Rectangle-2" data-name="Rectangle" width="37" height="37" fill="#121212"/>
    <g id="Group_13_Copy_3-2" data-name="Group 13 Copy 3" clip-path="url(#clip-path)">
      <circle id="Oval" cx="18.5" cy="18.5" r="18.5" transform="translate(6.167 5.396)" fill="#2e2e2e" opacity="0.512"/>
    </g>
  </g>
  <g id="Group_26" data-name="Group 26" transform="translate(11 13)">
    <g id="Light">
      <g id="Weather" transform="translate(0 0.5)">
        <path id="Shape" d="M1.642,8.6A4.8,4.8,0,0,1,.095,7.349a.422.422,0,0,1-.036-.482A.469.469,0,0,1,.5,6.646,3.837,3.837,0,0,0,4.277,4.687,3.612,3.612,0,0,0,3.845.711.424.424,0,0,1,3.8.236.487.487,0,0,1,4.228,0,4.5,4.5,0,0,1,5.993.51,4.647,4.647,0,0,1,8.325,3.18a4.31,4.31,0,0,1-.311,3.469A4.7,4.7,0,0,1,3.825,9.117,4.87,4.87,0,0,1,1.642,8.6Z" transform="translate(5.276 1.526)" fill="#fff"/>
        <path id="Shape-2" data-name="Shape" d="M1.567,6.425a.429.429,0,0,1-.205-.414l.194-1.786L.157,3.066a.424.424,0,0,1-.142-.44A.443.443,0,0,1,.36,2.307L2.183,1.93,2.9.267A.457.457,0,0,1,3.29,0a.481.481,0,0,1,.423.222l.91,1.567,1.852.156a.454.454,0,0,1,.383.274.425.425,0,0,1-.082.452L5.539,4.02l.392,1.6A.43.43,0,0,1,6,5.844a.456.456,0,0,1-.464.437.463.463,0,0,1-.194-.038l-1.7-.722-1.6.913a.477.477,0,0,1-.23.061A.468.468,0,0,1,1.567,6.425Z" transform="translate(0.174 0.359)" fill="#fff"/>
      </g>
    </g>
  </g>
</svg>
