<?xml version="1.0" encoding="utf-8"?>
<!-- Generator: Adobe Illustrator 23.1.0, SVG Export Plug-In . SVG Version: 6.00 Build 0)  -->
<svg version="1.1" id="Layer_1" xmlns="http://www.w3.org/2000/svg" xmlns:xlink="http://www.w3.org/1999/xlink" x="0px" y="0px"
	 viewBox="0 0 841.89 595.28" style="enable-background:new 0 0 841.89 595.28;" xml:space="preserve">
<style type="text/css">
	.st0{clip-path:url(#SVGID_2_);fill-rule:evenodd;clip-rule:evenodd;fill:#FFFFFF;}
	.st1{clip-path:url(#SVGID_2_);fill-rule:evenodd;clip-rule:evenodd;fill:#171B53;}
	.st2{clip-path:url(#SVGID_2_);fill-rule:evenodd;clip-rule:evenodd;fill:#FFF200;}
</style>
<g>
	<defs>
		<rect id="SVGID_1_" width="841.89" height="595.28"/>
	</defs>
	<clipPath id="SVGID_2_">
		<use xlink:href="#SVGID_1_"  style="overflow:visible;"/>
	</clipPath>
	<path class="st0" d="M132.51,258.92c-13.46,10.53-17.27,28.14-8.51,39.35c8.76,11.21,26.78,11.76,40.24,1.23
		c13.46-10.52,17.27-28.14,8.51-39.35C163.99,248.95,145.97,248.4,132.51,258.92"/>
	<path class="st0" d="M206.14,293.89c-9.75,7.62-12.51,20.38-6.16,28.49c6.34,8.11,19.39,8.52,29.13,0.89
		c9.74-7.62,12.5-20.38,6.16-28.49C228.93,286.67,215.88,286.27,206.14,293.89"/>
	<path class="st0" d="M264.33,284.9c-7.92,6.19-10.16,16.57-5.01,23.16c5.16,6.6,15.76,6.92,23.68,0.73
		c7.92-6.2,10.17-16.57,5.01-23.16C282.86,279.03,272.25,278.71,264.33,284.9"/>
	<path class="st0" d="M303.34,256.76c-6.58,5.15-8.45,13.77-4.16,19.25c4.29,5.48,13.1,5.75,19.68,0.6
		c6.58-5.15,8.45-13.76,4.16-19.25C318.73,251.88,309.92,251.61,303.34,256.76"/>
	<path class="st0" d="M288.9,235.88c-3.61,2.82-4.63,7.54-2.28,10.55c2.35,3,7.18,3.15,10.78,0.33c3.61-2.82,4.63-7.54,2.28-10.55
		C297.34,233.2,292.51,233.06,288.9,235.88"/>
	<path class="st0" d="M267.26,230.59c-3.05,2.39-3.92,6.38-1.93,8.93c1.99,2.54,6.08,2.67,9.13,0.28c3.05-2.39,3.92-6.38,1.93-8.93
		C274.4,228.33,270.31,228.2,267.26,230.59"/>
	<path class="st1" d="M129.93,255.98c-17.97,14.05-21.31,39.8-7.47,57.51c13.84,17.71,39.64,20.67,57.61,6.63
		c17.97-14.05,21.31-39.8,7.47-57.51C173.7,244.89,147.91,241.93,129.93,255.98"/>
	<path class="st1" d="M203.82,291.5c-13.01,10.17-15.43,28.81-5.4,41.63c10.03,12.82,28.7,14.97,41.71,4.8
		c13.01-10.17,15.43-28.81,5.4-41.63C235.51,283.48,216.83,281.33,203.82,291.5"/>
	<path class="st2" d="M262.15,282.79c-10.58,8.27-12.55,23.42-4.39,33.85c8.15,10.42,23.33,12.17,33.9,3.9
		c10.58-8.27,12.54-23.42,4.39-33.85C287.9,276.27,272.72,274.52,262.15,282.79"/>
	<path class="st1" d="M301.25,254.85c-8.79,6.87-10.42,19.46-3.65,28.13c6.77,8.66,19.39,10.11,28.17,3.24
		c8.79-6.87,10.42-19.46,3.65-28.13C322.66,249.43,310.04,247.98,301.25,254.85"/>
	<path class="st1" d="M287.03,234.42c-4.82,3.77-5.71,10.67-2,15.41c3.71,4.75,10.63,5.54,15.44,1.77c4.82-3.77,5.71-10.67,2-15.41
		C298.75,231.44,291.84,230.65,287.03,234.42"/>
	<path class="st1" d="M265.43,229.21c-4.08,3.19-4.84,9.03-1.69,13.04c3.14,4.02,8.99,4.69,13.07,1.5
		c4.08-3.19,4.83-9.03,1.69-13.04C275.35,226.7,269.5,226.02,265.43,229.21"/>
	<path class="st0" d="M711.46,246.56h-63.07c-2.59,0-4.82,0.93-6.69,2.79c-1.86,1.86-2.79,4.07-2.79,6.64v60.56
		c0,2.6,0.93,4.82,2.79,6.66c1.86,1.84,4.09,2.77,6.69,2.77h63.07c2.56,0,4.77-0.92,6.64-2.77c1.86-1.84,2.79-4.07,2.79-6.66v-60.56
		c0-2.56-0.93-4.77-2.79-6.64C716.23,247.49,714.03,246.56,711.46,246.56 M702.24,310.34h-44.63v-48.16h44.63V310.34z"/>
	<path class="st0" d="M437.19,261.98v-1.54c0,0-1.15-13.8-20.11-13.79c-0.16,0-60.26,0.04-60.26,0.04v38.85v0.27v38.85
		c0,0,60.09,0.01,60.26,0.01c18.96-0.01,20.11-13.81,20.11-13.81v-1.54l-62.03,0.02v-15.92l43.7-0.01v-0.07
		c0.05,0,0.09,0.01,0.14,0.01c4.26,0,7.71-3.42,7.71-7.62v-0.06v-0.06c0-4.21-3.45-7.62-7.71-7.62c-0.05,0-0.09,0.01-0.14,0.01
		v-0.07l-43.7,0.01V262L437.19,261.98z"/>
	<path class="st0" d="M512.85,262.06c-0.27,6.98-0.31,9.28-0.27,8.36l-0.3,21.59l-37.46-29.2v0.02l-14.84-11.58
		c-1.64-1.07-2.86-2.26-4.79-2.26c-3.41,0-6.17,2.74-6.17,6.1v69.77c0,0,17.9-0.44,18.41-13.73c0.27-6.98,0.31-9.28,0.27-8.36
		l0.3-21.59l37.46,29.2v-0.01l14.84,11.58c1.64,1.07,2.86,2.26,4.79,2.26c3.41,0,6.17-2.73,6.17-6.1v-69.76
		C531.27,248.34,513.37,248.77,512.85,262.06"/>
	<path class="st0" d="M544.91,259.57v1.16v33.91c0,1.67,0.98,5.17,2.93,6.36c1.95,1.18,4.27,1.78,6.96,1.78l26.52-0.01l16.59,0
		l11.23,0v7.71l-62.65,0.02c0,10.26,6.23,15.38,18.66,15.37l44.5-0.01c12.43,0,18.65-5.12,18.65-15.38v-46.15
		c0-0.75-0.04-1.47-0.11-2.17v-1.44c0,0,0.01,0,0.01,0c-0.01-0.3-0.01-0.68-0.01-1.15c0-2.81-1.54-11.09-12.6-11.5l-1.24,0l-5.31,0
		v4.93c0,0.06-0.01,0.11-0.01,0.17s0.01,0.11,0.01,0.17v35.35l-11.11,0l-16.59,0.01l-17.25,0v-35.35c0-0.05,0.01-0.11,0.01-0.17
		c0-0.05-0.01-0.11-0.01-0.17v-4.93l-5.31,0h-1.24C546.46,248.48,544.91,256.76,544.91,259.57"/>
	<path class="st1" d="M709.74,245.58h-63.07c-2.6,0-4.82,0.93-6.69,2.79c-1.86,1.86-2.79,4.08-2.79,6.63v60.56
		c0,2.6,0.93,4.82,2.79,6.66c1.86,1.85,4.09,2.77,6.69,2.77h63.07c2.56,0,4.77-0.92,6.63-2.77c1.86-1.84,2.79-4.06,2.79-6.66v-60.56
		c0-2.56-0.93-4.77-2.79-6.63C714.51,246.51,712.3,245.58,709.74,245.58 M700.52,309.37H655.9v-48.16h44.62V309.37z"/>
	<path class="st1" d="M435.46,261.01v-1.54c0,0-1.15-13.8-20.11-13.79c-0.17,0-60.26,0.04-60.26,0.04v38.85v0.27v38.85
		c0,0,60.09,0.01,60.26,0.01c18.96-0.01,20.11-13.8,20.11-13.8v-1.55l-62.03,0.02v-15.92l43.7-0.01v-0.07
		c0.05,0,0.09,0.01,0.14,0.01c4.26,0,7.71-3.42,7.71-7.63c0-0.02,0-0.04,0-0.06c0-0.02,0-0.04,0-0.06c0-4.21-3.45-7.62-7.71-7.62
		c-0.05,0-0.09,0.01-0.14,0.01v-0.07l-43.7,0.01v-15.92L435.46,261.01z"/>
	<path class="st1" d="M511.13,261.08c-0.27,6.97-0.31,9.28-0.27,8.36l-0.29,21.59l-37.46-29.2v0.02l-14.84-11.58
		c-1.64-1.07-2.86-2.26-4.79-2.26c-3.41,0-6.17,2.73-6.17,6.1v69.76c0,0,17.9-0.44,18.41-13.72c0.27-6.98,0.31-9.28,0.27-8.36
		l0.3-21.59l37.46,29.2v-0.02l14.84,11.57c1.64,1.07,2.86,2.26,4.79,2.26c3.41,0,6.17-2.73,6.17-6.1v-69.76
		C529.54,247.36,511.65,247.8,511.13,261.08"/>
	<path class="st1" d="M543.19,258.59v1.16v0v33.91c0,1.67,0.98,5.18,2.93,6.36c1.96,1.18,4.27,1.78,6.96,1.78l26.52-0.01l16.59-0.01
		l11.23,0v7.71l-62.65,0.02c0,10.26,6.23,15.38,18.66,15.38l44.5-0.01c12.43,0,18.65-5.12,18.65-15.39v-46.15
		c0-0.75-0.04-1.47-0.11-2.17v-1.44h0c0-0.3,0-0.68,0-1.16c0-2.81-1.54-11.08-12.61-11.5h-1.24l-5.31,0V252
		c0,0.05-0.01,0.11-0.01,0.16c0,0.06,0.01,0.11,0.01,0.17v35.36l-11.11,0l-16.59,0.01l-17.24,0.01v-35.36
		c0-0.05,0.01-0.11,0.01-0.16c0-0.05-0.01-0.11-0.01-0.17v-4.92l-5.31,0h-1.25C544.74,247.51,543.19,255.78,543.19,258.59"/>
	<path class="st1" d="M373.17,370.76c0,0.13-0.03,0.25-0.08,0.34c-0.05,0.1-0.17,0.17-0.37,0.23c-0.2,0.06-0.48,0.1-0.86,0.13
		c-0.38,0.03-0.89,0.04-1.54,0.04c-0.54,0-0.98-0.01-1.3-0.04c-0.33-0.02-0.58-0.07-0.77-0.14c-0.19-0.07-0.32-0.15-0.4-0.26
		c-0.07-0.11-0.14-0.24-0.19-0.38l-2.28-5.38c-0.27-0.61-0.54-1.15-0.8-1.62c-0.26-0.48-0.55-0.87-0.87-1.18
		c-0.32-0.32-0.69-0.55-1.11-0.71c-0.41-0.16-0.9-0.24-1.45-0.24h-1.6v9.18c0,0.12-0.04,0.23-0.13,0.33
		c-0.09,0.1-0.23,0.18-0.42,0.25c-0.19,0.06-0.45,0.11-0.78,0.15c-0.32,0.04-0.74,0.06-1.24,0.06c-0.49,0-0.9-0.02-1.24-0.06
		c-0.34-0.04-0.59-0.09-0.79-0.15c-0.19-0.06-0.34-0.15-0.41-0.24c-0.08-0.1-0.12-0.21-0.12-0.33v-21.82c0-0.54,0.15-0.94,0.44-1.18
		c0.3-0.24,0.65-0.36,1.08-0.36h6.54c0.66,0,1.21,0.01,1.64,0.04c0.43,0.03,0.82,0.06,1.17,0.09c1.01,0.14,1.92,0.37,2.74,0.71
		c0.81,0.33,1.5,0.77,2.07,1.3c0.56,0.54,1,1.17,1.3,1.91c0.3,0.73,0.45,1.58,0.45,2.53c0,0.8-0.11,1.53-0.32,2.19
		c-0.22,0.67-0.53,1.26-0.95,1.77c-0.41,0.52-0.92,0.97-1.54,1.35c-0.61,0.39-1.31,0.69-2.09,0.93c0.38,0.17,0.73,0.38,1.07,0.63
		c0.33,0.25,0.65,0.55,0.94,0.91c0.29,0.35,0.57,0.75,0.83,1.21c0.26,0.45,0.51,0.96,0.76,1.53l2.13,4.74
		c0.19,0.47,0.33,0.81,0.39,1.03C373.14,370.46,373.17,370.63,373.17,370.76 M366.54,354.45c0-0.79-0.19-1.46-0.57-2
		c-0.38-0.54-1-0.93-1.86-1.15c-0.26-0.06-0.55-0.11-0.89-0.14c-0.33-0.04-0.79-0.06-1.38-0.06h-2.3v6.8h2.61
		c0.73,0,1.36-0.08,1.91-0.25c0.55-0.17,1-0.4,1.37-0.7c0.36-0.3,0.64-0.66,0.82-1.08C366.45,355.44,366.54,354.97,366.54,354.45
		 M389.74,362v-0.74c0-1.17-0.15-2.24-0.47-3.23c-0.31-0.99-0.8-1.85-1.46-2.57c-0.67-0.72-1.51-1.29-2.55-1.7
		c-1.03-0.41-2.28-0.61-3.73-0.61c-1.38,0-2.62,0.22-3.72,0.65c-1.1,0.43-2.03,1.06-2.79,1.88c-0.77,0.82-1.36,1.82-1.76,3
		c-0.41,1.19-0.61,2.51-0.61,3.98c0,1.55,0.2,2.9,0.57,4.05c0.39,1.15,0.96,2.1,1.74,2.86c0.78,0.75,1.76,1.32,2.92,1.68
		c1.17,0.37,2.52,0.56,4.07,0.56c0.86,0,1.66-0.06,2.42-0.17c0.75-0.11,1.41-0.23,2-0.38c0.59-0.14,1.07-0.29,1.45-0.44
		c0.38-0.15,0.6-0.27,0.69-0.35c0.09-0.09,0.15-0.18,0.21-0.27c0.05-0.09,0.09-0.2,0.11-0.34c0.03-0.13,0.05-0.3,0.06-0.49
		c0.01-0.19,0.02-0.42,0.02-0.69c0-0.31-0.01-0.57-0.02-0.77c-0.02-0.2-0.06-0.36-0.11-0.47c-0.05-0.11-0.12-0.19-0.2-0.23
		c-0.07-0.05-0.18-0.06-0.29-0.06c-0.19,0-0.45,0.06-0.76,0.18c-0.32,0.12-0.71,0.24-1.18,0.39c-0.48,0.15-1.04,0.27-1.69,0.39
		c-0.65,0.12-1.4,0.18-2.26,0.18c-0.85,0-1.56-0.11-2.17-0.32c-0.61-0.21-1.1-0.51-1.49-0.91c-0.38-0.4-0.66-0.88-0.83-1.46
		c-0.18-0.58-0.27-1.21-0.27-1.91h10.6c0.47,0,0.84-0.14,1.1-0.41C389.6,362.99,389.74,362.57,389.74,362 M384.99,360.67h-7.35
		c0.03-0.58,0.12-1.13,0.29-1.65c0.16-0.51,0.39-0.96,0.7-1.34c0.31-0.38,0.69-0.68,1.16-0.9c0.46-0.22,1.01-0.33,1.63-0.33
		c1.24,0,2.15,0.37,2.74,1.13C384.74,358.33,385.02,359.36,384.99,360.67 M401.44,369.13c0,0.55-0.03,0.96-0.11,1.26
		c-0.07,0.29-0.17,0.49-0.29,0.61c-0.11,0.12-0.29,0.23-0.51,0.32c-0.23,0.1-0.5,0.18-0.81,0.24c-0.3,0.07-0.63,0.12-0.99,0.16
		c-0.36,0.04-0.72,0.06-1.08,0.06c-0.97,0-1.82-0.12-2.54-0.35c-0.71-0.23-1.3-0.6-1.78-1.08c-0.47-0.49-0.81-1.1-1.03-1.85
		c-0.22-0.74-0.33-1.62-0.33-2.64v-8.48h-2.11c-0.25,0-0.44-0.15-0.57-0.44c-0.14-0.29-0.2-0.78-0.2-1.46
		c0-0.36,0.01-0.67,0.04-0.91c0.03-0.25,0.09-0.44,0.15-0.59c0.06-0.14,0.14-0.24,0.25-0.3c0.09-0.06,0.21-0.09,0.34-0.09h2.09
		v-3.71c0-0.12,0.03-0.23,0.11-0.34c0.07-0.1,0.2-0.18,0.39-0.24c0.19-0.07,0.45-0.12,0.77-0.15c0.32-0.03,0.71-0.04,1.18-0.04
		c0.48,0,0.88,0.01,1.2,0.04c0.32,0.03,0.58,0.08,0.76,0.15c0.18,0.07,0.31,0.15,0.39,0.24c0.08,0.1,0.12,0.22,0.12,0.34v3.71h3.78
		c0.13,0,0.25,0.03,0.34,0.09c0.1,0.06,0.18,0.17,0.25,0.3c0.07,0.15,0.11,0.34,0.15,0.59c0.03,0.25,0.05,0.55,0.05,0.91
		c0,0.68-0.07,1.17-0.19,1.46c-0.13,0.29-0.32,0.44-0.57,0.44h-3.79v7.78c0,0.91,0.15,1.58,0.45,2.03c0.3,0.45,0.83,0.68,1.6,0.68
		c0.26,0,0.49-0.02,0.7-0.06c0.21-0.05,0.39-0.09,0.55-0.15c0.17-0.05,0.3-0.1,0.41-0.14c0.11-0.04,0.21-0.06,0.3-0.06
		c0.08,0,0.15,0.02,0.23,0.06c0.06,0.04,0.13,0.13,0.16,0.26c0.04,0.13,0.07,0.3,0.11,0.53
		C401.42,368.5,401.44,368.78,401.44,369.13 M417.02,370.82v-11.14c0-1.13-0.14-2.12-0.43-2.95c-0.29-0.83-0.75-1.51-1.37-2.03
		c-0.62-0.53-1.42-0.92-2.38-1.17c-0.97-0.25-2.14-0.38-3.5-0.38c-0.76,0-1.51,0.06-2.23,0.18c-0.72,0.11-1.38,0.26-2,0.46
		c-0.61,0.18-1.15,0.39-1.6,0.6c-0.46,0.22-0.77,0.41-0.96,0.59c-0.18,0.18-0.31,0.38-0.37,0.6c-0.07,0.22-0.1,0.52-0.1,0.91
		c0,0.28,0.02,0.54,0.06,0.77c0.04,0.24,0.1,0.44,0.17,0.6c0.07,0.16,0.16,0.29,0.27,0.37c0.11,0.08,0.23,0.13,0.38,0.13
		c0.21,0,0.47-0.09,0.81-0.26c0.33-0.17,0.74-0.37,1.24-0.58c0.49-0.21,1.05-0.41,1.7-0.58c0.64-0.17,1.37-0.26,2.19-0.26
		c0.62,0,1.15,0.06,1.57,0.18c0.43,0.13,0.76,0.32,1.01,0.58c0.25,0.26,0.44,0.59,0.54,0.98c0.12,0.39,0.17,0.85,0.17,1.37v1h-1.7
		c-1.54,0-2.9,0.11-4.07,0.33c-1.17,0.22-2.15,0.56-2.93,1.02c-0.78,0.47-1.38,1.05-1.77,1.77c-0.39,0.71-0.59,1.55-0.59,2.51
		c0,0.89,0.15,1.67,0.47,2.34c0.31,0.66,0.75,1.22,1.32,1.68c0.57,0.45,1.23,0.79,2,1.02c0.77,0.23,1.62,0.34,2.54,0.34
		c1.12,0,2.14-0.2,3.05-0.61c0.92-0.41,1.73-0.97,2.45-1.7v1.32c0,0.17,0.05,0.3,0.17,0.41c0.11,0.1,0.3,0.17,0.57,0.22
		c0.27,0.04,0.69,0.06,1.28,0.06c0.55,0,0.96-0.02,1.24-0.06c0.28-0.05,0.49-0.11,0.62-0.22
		C416.96,371.12,417.02,370.99,417.02,370.82 M412.19,363.71v2.82c-0.6,0.65-1.19,1.13-1.76,1.47c-0.58,0.33-1.21,0.5-1.9,0.5
		c-0.82,0-1.46-0.2-1.92-0.6c-0.46-0.39-0.69-0.94-0.69-1.63c0-0.41,0.08-0.77,0.25-1.08c0.16-0.32,0.41-0.58,0.77-0.8
		c0.35-0.23,0.8-0.39,1.36-0.51c0.56-0.11,1.23-0.16,2.03-0.16H412.19z M424.46,370.76c0,0.12-0.04,0.23-0.12,0.32
		c-0.07,0.1-0.21,0.17-0.4,0.23c-0.18,0.06-0.44,0.11-0.74,0.14c-0.32,0.03-0.71,0.04-1.19,0.04s-0.88-0.01-1.19-0.04
		c-0.31-0.03-0.56-0.08-0.75-0.14c-0.19-0.06-0.32-0.14-0.4-0.23c-0.08-0.09-0.12-0.2-0.12-0.32v-16.53c0-0.12,0.04-0.23,0.12-0.32
		c0.07-0.1,0.2-0.18,0.4-0.24c0.19-0.07,0.44-0.12,0.75-0.16c0.31-0.04,0.71-0.06,1.19-0.06s0.88,0.02,1.19,0.06
		c0.3,0.04,0.56,0.09,0.74,0.16c0.19,0.06,0.33,0.15,0.4,0.24c0.08,0.09,0.12,0.2,0.12,0.32V370.76z M424.86,348.56
		c0,0.95-0.2,1.59-0.61,1.95c-0.4,0.36-1.15,0.54-2.25,0.54c-1.11,0-1.86-0.17-2.24-0.52c-0.38-0.35-0.58-0.98-0.58-1.88
		c0-0.94,0.2-1.6,0.6-1.96c0.39-0.36,1.14-0.54,2.25-0.54c1.09,0,1.84,0.18,2.23,0.53C424.66,347.03,424.86,347.66,424.86,348.56
		 M431.89,370.76c0,0.12-0.04,0.23-0.12,0.32c-0.07,0.1-0.21,0.17-0.4,0.23c-0.18,0.06-0.44,0.11-0.74,0.14
		c-0.31,0.03-0.71,0.04-1.19,0.04c-0.48,0-0.88-0.01-1.19-0.04c-0.3-0.03-0.56-0.08-0.75-0.14c-0.19-0.06-0.33-0.14-0.4-0.23
		c-0.08-0.09-0.12-0.2-0.12-0.32v-24.42c0-0.13,0.04-0.23,0.12-0.34c0.07-0.1,0.21-0.18,0.4-0.25c0.19-0.07,0.44-0.12,0.75-0.16
		c0.31-0.04,0.71-0.06,1.19-0.06c0.48,0,0.88,0.02,1.19,0.06c0.31,0.04,0.56,0.09,0.74,0.16c0.19,0.06,0.33,0.15,0.4,0.25
		c0.08,0.1,0.12,0.21,0.12,0.34V370.76z M458.25,370.82c0,0.17-0.07,0.3-0.19,0.41c-0.14,0.1-0.34,0.17-0.62,0.22
		c-0.28,0.04-0.69,0.06-1.24,0.06c-0.59,0-1.01-0.02-1.28-0.06c-0.27-0.05-0.46-0.11-0.57-0.22c-0.11-0.1-0.16-0.23-0.16-0.41v-1.32
		c-0.72,0.73-1.53,1.29-2.45,1.7c-0.91,0.4-1.93,0.61-3.05,0.61c-0.92,0-1.77-0.11-2.54-0.34c-0.77-0.23-1.44-0.57-2-1.02
		c-0.57-0.45-1.01-1.01-1.32-1.68c-0.32-0.67-0.47-1.45-0.47-2.34c0-0.97,0.2-1.81,0.59-2.51c0.4-0.72,0.99-1.3,1.78-1.77
		c0.79-0.46,1.76-0.8,2.93-1.02c1.16-0.22,2.52-0.33,4.07-0.33h1.7v-1c0-0.52-0.05-0.98-0.17-1.37c-0.11-0.39-0.29-0.71-0.54-0.98
		c-0.25-0.26-0.59-0.45-1.01-0.58c-0.42-0.12-0.94-0.18-1.56-0.18c-0.82,0-1.55,0.09-2.19,0.26c-0.65,0.17-1.21,0.37-1.71,0.58
		c-0.49,0.21-0.9,0.41-1.24,0.58c-0.33,0.17-0.6,0.26-0.81,0.26c-0.15,0-0.27-0.04-0.38-0.13c-0.11-0.09-0.2-0.22-0.27-0.37
		c-0.07-0.16-0.13-0.36-0.17-0.6c-0.04-0.23-0.06-0.49-0.06-0.77c0-0.39,0.03-0.69,0.1-0.91c0.06-0.22,0.18-0.42,0.37-0.6
		c0.19-0.18,0.5-0.37,0.96-0.59c0.45-0.21,0.98-0.42,1.6-0.6c0.61-0.19,1.28-0.34,2-0.46c0.72-0.12,1.47-0.18,2.24-0.18
		c1.37,0,2.53,0.13,3.5,0.38c0.97,0.25,1.76,0.65,2.39,1.17c0.63,0.52,1.08,1.2,1.37,2.03c0.29,0.82,0.43,1.81,0.43,2.95V370.82z
		 M453.42,363.71h-1.87c-0.79,0-1.46,0.06-2.02,0.16c-0.56,0.11-1.01,0.28-1.36,0.51c-0.35,0.22-0.6,0.49-0.76,0.8
		c-0.17,0.32-0.25,0.68-0.25,1.08c0,0.7,0.23,1.24,0.69,1.63c0.46,0.4,1.1,0.6,1.92,0.6c0.69,0,1.32-0.17,1.9-0.5
		c0.58-0.34,1.16-0.82,1.76-1.47V363.71z M477.39,370.76c0,0.12-0.04,0.23-0.12,0.32c-0.07,0.1-0.21,0.17-0.39,0.23
		c-0.18,0.06-0.43,0.11-0.76,0.14c-0.32,0.03-0.71,0.04-1.18,0.04c-0.49,0-0.89-0.01-1.21-0.04c-0.32-0.03-0.57-0.08-0.76-0.14
		c-0.18-0.06-0.31-0.14-0.39-0.23c-0.08-0.09-0.12-0.2-0.12-0.32v-9.44c0-0.8-0.06-1.44-0.18-1.89c-0.12-0.46-0.3-0.86-0.53-1.18
		c-0.23-0.33-0.54-0.58-0.91-0.77c-0.37-0.18-0.8-0.26-1.29-0.26c-0.63,0-1.25,0.22-1.89,0.65c-0.63,0.43-1.3,1.06-1.98,1.89v11.01
		c0,0.12-0.04,0.23-0.12,0.32c-0.07,0.1-0.21,0.17-0.4,0.23c-0.18,0.06-0.44,0.11-0.74,0.14c-0.32,0.03-0.71,0.04-1.19,0.04
		c-0.48,0-0.88-0.01-1.19-0.04c-0.3-0.03-0.56-0.08-0.74-0.14c-0.19-0.06-0.33-0.14-0.4-0.23c-0.08-0.09-0.12-0.2-0.12-0.32v-16.57
		c0-0.12,0.03-0.23,0.1-0.32c0.06-0.1,0.18-0.17,0.34-0.23c0.18-0.06,0.39-0.11,0.65-0.14c0.27-0.03,0.61-0.04,1-0.04
		c0.42,0,0.76,0.01,1.03,0.04c0.27,0.03,0.48,0.08,0.64,0.14c0.15,0.06,0.26,0.14,0.32,0.23c0.07,0.09,0.1,0.2,0.1,0.32v1.91
		c0.96-0.99,1.94-1.73,2.94-2.22c0.99-0.49,2.03-0.74,3.11-0.74c1.19,0,2.18,0.18,3,0.56c0.81,0.37,1.46,0.88,1.97,1.52
		c0.5,0.63,0.86,1.38,1.08,2.23c0.22,0.85,0.33,1.88,0.33,3.08V370.76z M496.32,370.76c0,0.13-0.03,0.25-0.1,0.34
		c-0.06,0.1-0.17,0.17-0.33,0.23c-0.16,0.06-0.37,0.1-0.64,0.13c-0.27,0.03-0.6,0.04-0.98,0.04c-0.42,0-0.76-0.01-1.02-0.04
		c-0.26-0.02-0.47-0.07-0.63-0.13c-0.16-0.06-0.28-0.14-0.35-0.23c-0.07-0.1-0.11-0.21-0.11-0.35v-1.84
		c-0.89,0.92-1.84,1.63-2.81,2.14c-0.99,0.51-2.07,0.76-3.27,0.76c-1.32,0-2.45-0.25-3.36-0.73c-0.92-0.49-1.67-1.15-2.24-1.98
		c-0.58-0.82-1-1.79-1.26-2.9c-0.26-1.11-0.39-2.28-0.39-3.5c0-1.47,0.17-2.79,0.5-3.97c0.33-1.17,0.81-2.17,1.45-3
		c0.64-0.83,1.43-1.46,2.38-1.91c0.95-0.44,2.04-0.67,3.27-0.67c0.98,0,1.86,0.19,2.65,0.56c0.8,0.38,1.58,0.93,2.36,1.66v-8.95
		c0-0.13,0.03-0.23,0.1-0.34c0.07-0.09,0.2-0.18,0.39-0.25c0.19-0.07,0.44-0.12,0.75-0.16c0.31-0.04,0.71-0.06,1.19-0.06
		c0.48,0,0.88,0.02,1.19,0.06c0.31,0.04,0.56,0.09,0.74,0.16c0.18,0.06,0.31,0.15,0.39,0.25c0.08,0.1,0.12,0.21,0.12,0.34V370.76z
		 M491.45,359.69c-0.7-0.84-1.38-1.48-2.02-1.93c-0.65-0.44-1.32-0.66-2.02-0.66c-0.64,0-1.19,0.15-1.65,0.46
		c-0.46,0.3-0.83,0.7-1.11,1.21c-0.28,0.51-0.49,1.08-0.63,1.7c-0.14,0.63-0.21,1.27-0.21,1.92c0,0.7,0.06,1.37,0.17,2.02
		c0.12,0.66,0.32,1.24,0.58,1.76c0.26,0.51,0.62,0.92,1.06,1.24c0.44,0.31,1,0.46,1.68,0.46c0.33,0,0.67-0.05,0.99-0.14
		c0.32-0.09,0.64-0.24,0.97-0.45c0.33-0.21,0.67-0.48,1.03-0.82c0.35-0.34,0.74-0.76,1.15-1.25V359.69z M523.16,364.18
		c0,1.27-0.25,2.37-0.74,3.33c-0.5,0.95-1.16,1.74-2.01,2.38c-0.85,0.63-1.84,1.11-2.97,1.44c-1.13,0.32-2.34,0.48-3.64,0.48
		c-0.87,0-1.68-0.07-2.43-0.21c-0.75-0.14-1.41-0.3-1.98-0.5c-0.57-0.19-1.05-0.39-1.44-0.61c-0.39-0.21-0.66-0.4-0.83-0.56
		c-0.17-0.16-0.29-0.4-0.36-0.7c-0.08-0.3-0.11-0.73-0.11-1.3c0-0.39,0.01-0.7,0.04-0.96c0.02-0.26,0.07-0.47,0.13-0.63
		c0.06-0.16,0.14-0.27,0.23-0.34c0.1-0.07,0.21-0.1,0.34-0.1c0.18,0,0.44,0.1,0.77,0.31c0.33,0.2,0.76,0.43,1.27,0.68
		c0.52,0.25,1.15,0.47,1.87,0.68c0.72,0.21,1.56,0.31,2.51,0.31c0.63,0,1.18-0.07,1.68-0.21c0.5-0.15,0.92-0.34,1.26-0.6
		c0.34-0.26,0.61-0.57,0.79-0.96c0.18-0.38,0.27-0.8,0.27-1.27c0-0.54-0.15-1.01-0.47-1.4c-0.31-0.39-0.72-0.74-1.22-1.04
		c-0.5-0.3-1.07-0.59-1.71-0.86c-0.63-0.26-1.29-0.54-1.97-0.84c-0.68-0.3-1.34-0.63-1.97-1.01c-0.64-0.37-1.21-0.82-1.71-1.35
		c-0.5-0.53-0.91-1.15-1.22-1.87c-0.31-0.71-0.47-1.58-0.47-2.58c0-1.15,0.23-2.16,0.67-3.04c0.45-0.87,1.05-1.59,1.81-2.17
		c0.77-0.58,1.66-1.01,2.69-1.29c1.03-0.28,2.13-0.42,3.29-0.42c0.59,0,1.19,0.04,1.79,0.13c0.6,0.08,1.16,0.2,1.67,0.35
		c0.52,0.15,0.98,0.32,1.39,0.5c0.4,0.19,0.67,0.34,0.8,0.47c0.13,0.12,0.21,0.23,0.26,0.31c0.05,0.09,0.09,0.2,0.12,0.35
		c0.03,0.14,0.05,0.32,0.06,0.54c0.01,0.21,0.02,0.48,0.02,0.8c0,0.35-0.01,0.66-0.03,0.91c-0.02,0.25-0.05,0.45-0.1,0.61
		c-0.04,0.16-0.11,0.28-0.19,0.35c-0.09,0.08-0.2,0.11-0.35,0.11c-0.14,0-0.36-0.09-0.68-0.26c-0.31-0.17-0.7-0.36-1.15-0.57
		c-0.46-0.2-0.99-0.39-1.58-0.55c-0.6-0.17-1.25-0.25-1.97-0.25c-0.56,0-1.04,0.06-1.46,0.2c-0.41,0.13-0.76,0.31-1.03,0.54
		c-0.28,0.23-0.5,0.5-0.63,0.82c-0.14,0.32-0.21,0.66-0.21,1.02c0,0.53,0.16,1,0.46,1.38c0.31,0.39,0.72,0.74,1.23,1.04
		c0.51,0.3,1.1,0.58,1.75,0.85c0.65,0.26,1.31,0.55,1.99,0.84c0.68,0.3,1.34,0.63,1.99,1.01c0.65,0.38,1.23,0.83,1.74,1.36
		c0.51,0.52,0.92,1.14,1.23,1.85C523.01,362.38,523.16,363.22,523.16,364.18 M540.9,370.76c0,0.12-0.03,0.23-0.1,0.32
		c-0.06,0.1-0.17,0.17-0.34,0.23c-0.16,0.06-0.37,0.11-0.65,0.14c-0.27,0.03-0.6,0.04-1,0.04c-0.43,0-0.78-0.01-1.04-0.04
		c-0.27-0.03-0.48-0.08-0.63-0.14c-0.16-0.06-0.27-0.14-0.33-0.23c-0.06-0.09-0.1-0.2-0.1-0.32v-1.91
		c-0.96,0.98-1.94,1.72-2.94,2.22c-1,0.49-2.03,0.74-3.09,0.74c-1.2,0-2.21-0.18-3.02-0.56c-0.81-0.37-1.47-0.88-1.97-1.52
		c-0.5-0.65-0.86-1.39-1.08-2.24c-0.21-0.85-0.32-1.91-0.32-3.17v-10.13c0-0.12,0.03-0.23,0.11-0.32c0.07-0.1,0.21-0.17,0.39-0.23
		c0.19-0.06,0.45-0.11,0.77-0.14c0.32-0.03,0.71-0.04,1.19-0.04c0.48,0,0.88,0.01,1.19,0.04c0.31,0.03,0.56,0.08,0.75,0.14
		c0.19,0.06,0.33,0.14,0.4,0.23c0.08,0.09,0.12,0.2,0.12,0.32v9.36c0,0.87,0.06,1.53,0.17,1.98c0.12,0.46,0.3,0.85,0.54,1.18
		c0.24,0.33,0.54,0.58,0.92,0.77c0.37,0.18,0.8,0.27,1.3,0.27c0.63,0,1.25-0.22,1.89-0.65c0.63-0.43,1.3-1.06,2.02-1.89v-11.01
		c0-0.12,0.03-0.23,0.11-0.32c0.07-0.1,0.2-0.17,0.39-0.23c0.18-0.06,0.44-0.11,0.74-0.14c0.31-0.03,0.71-0.04,1.19-0.04
		c0.48,0,0.88,0.01,1.19,0.04c0.3,0.03,0.56,0.08,0.74,0.14c0.18,0.06,0.31,0.14,0.39,0.23c0.08,0.09,0.12,0.2,0.12,0.32V370.76z
		 M560.95,362.23c0,1.47-0.17,2.8-0.5,3.98c-0.33,1.18-0.81,2.19-1.45,3.02c-0.63,0.83-1.42,1.46-2.37,1.91
		c-0.95,0.44-2.03,0.67-3.25,0.67c-0.51,0-0.97-0.04-1.39-0.14c-0.43-0.09-0.83-0.23-1.23-0.42c-0.39-0.2-0.79-0.43-1.18-0.72
		c-0.39-0.28-0.8-0.62-1.21-1v7.79c0,0.13-0.04,0.23-0.12,0.34c-0.07,0.09-0.2,0.18-0.4,0.25c-0.19,0.07-0.44,0.12-0.75,0.16
		c-0.31,0.04-0.71,0.06-1.19,0.06c-0.48,0-0.88-0.02-1.19-0.06c-0.31-0.04-0.56-0.09-0.74-0.16c-0.19-0.06-0.33-0.15-0.4-0.25
		c-0.08-0.1-0.12-0.21-0.12-0.34v-23.13c0-0.12,0.03-0.23,0.1-0.32c0.06-0.1,0.17-0.17,0.34-0.23c0.16-0.06,0.37-0.11,0.65-0.14
		c0.27-0.03,0.6-0.04,1-0.04c0.39,0,0.72,0.01,0.99,0.04c0.27,0.03,0.49,0.08,0.64,0.14c0.16,0.06,0.27,0.14,0.34,0.23
		c0.07,0.09,0.1,0.2,0.1,0.33v1.95c0.51-0.49,1-0.93,1.49-1.3c0.49-0.38,0.98-0.69,1.49-0.94c0.51-0.25,1.03-0.44,1.57-0.57
		c0.54-0.12,1.11-0.18,1.72-0.18c1.27,0,2.36,0.24,3.26,0.72c0.89,0.47,1.62,1.13,2.19,1.96c0.57,0.82,0.98,1.79,1.24,2.9
		C560.83,359.81,560.95,360.99,560.95,362.23 M555.84,362.56c0-0.7-0.05-1.38-0.17-2.03c-0.11-0.65-0.3-1.22-0.56-1.73
		c-0.27-0.51-0.61-0.91-1.05-1.21c-0.44-0.31-0.98-0.45-1.62-0.45c-0.33,0-0.65,0.04-0.97,0.14c-0.32,0.09-0.64,0.24-0.97,0.46
		c-0.33,0.21-0.67,0.48-1.02,0.81c-0.35,0.33-0.73,0.75-1.11,1.24v5.45c0.69,0.82,1.35,1.46,1.97,1.91
		c0.63,0.45,1.27,0.67,1.94,0.67c0.64,0,1.18-0.15,1.63-0.46c0.45-0.31,0.82-0.72,1.1-1.21c0.28-0.5,0.5-1.07,0.63-1.7
		C555.78,363.82,555.84,363.18,555.84,362.56"/>
	<path class="st1" d="M580.01,362.23c0,1.47-0.17,2.8-0.5,3.98c-0.33,1.18-0.81,2.18-1.45,3.02c-0.63,0.83-1.42,1.46-2.37,1.91
		c-0.95,0.44-2.04,0.67-3.26,0.67c-0.5,0-0.97-0.04-1.39-0.14c-0.43-0.1-0.83-0.23-1.23-0.42c-0.39-0.2-0.78-0.43-1.17-0.72
		c-0.39-0.28-0.79-0.62-1.21-1v7.79c0,0.13-0.04,0.23-0.12,0.34c-0.07,0.09-0.21,0.18-0.4,0.25c-0.18,0.07-0.44,0.12-0.74,0.16
		c-0.31,0.04-0.71,0.06-1.19,0.06c-0.48,0-0.88-0.02-1.19-0.06c-0.3-0.04-0.56-0.09-0.75-0.16c-0.19-0.06-0.32-0.15-0.4-0.25
		c-0.08-0.1-0.12-0.21-0.12-0.34v-23.13c0-0.12,0.03-0.23,0.1-0.32c0.06-0.1,0.17-0.17,0.34-0.23c0.16-0.06,0.37-0.11,0.65-0.14
		c0.26-0.03,0.6-0.04,1-0.04c0.39,0,0.72,0.01,0.98,0.04c0.27,0.03,0.49,0.08,0.65,0.14c0.16,0.06,0.27,0.14,0.34,0.23
		c0.07,0.1,0.1,0.2,0.1,0.33v1.95c0.5-0.49,1-0.93,1.49-1.3c0.49-0.38,0.98-0.69,1.48-0.94c0.51-0.25,1.03-0.44,1.57-0.57
		c0.54-0.12,1.11-0.18,1.72-0.18c1.27,0,2.36,0.24,3.26,0.72c0.89,0.48,1.62,1.13,2.19,1.96c0.56,0.82,0.98,1.79,1.23,2.9
		C579.88,359.81,580.01,360.99,580.01,362.23 M574.9,362.56c0-0.7-0.05-1.38-0.16-2.03c-0.11-0.65-0.3-1.22-0.57-1.73
		c-0.27-0.51-0.61-0.91-1.04-1.21c-0.44-0.3-0.98-0.45-1.62-0.45c-0.33,0-0.65,0.04-0.96,0.14c-0.32,0.09-0.64,0.24-0.97,0.46
		c-0.33,0.21-0.67,0.48-1.02,0.81c-0.35,0.34-0.73,0.75-1.11,1.24v5.45c0.69,0.82,1.34,1.46,1.96,1.91
		c0.63,0.45,1.27,0.67,1.94,0.67c0.64,0,1.18-0.15,1.62-0.46c0.45-0.31,0.82-0.72,1.1-1.21c0.29-0.5,0.5-1.06,0.63-1.7
		C574.83,363.82,574.9,363.18,574.9,362.56 M586.49,370.76c0,0.12-0.04,0.23-0.12,0.32c-0.07,0.09-0.21,0.17-0.4,0.23
		c-0.19,0.06-0.44,0.11-0.74,0.14c-0.32,0.03-0.72,0.04-1.19,0.04c-0.48,0-0.88-0.01-1.19-0.04c-0.31-0.03-0.56-0.08-0.74-0.14
		c-0.19-0.06-0.33-0.14-0.4-0.23c-0.08-0.09-0.12-0.2-0.12-0.32v-24.42c0-0.13,0.04-0.23,0.12-0.34c0.07-0.09,0.21-0.18,0.4-0.25
		c0.18-0.07,0.44-0.12,0.74-0.16c0.32-0.04,0.71-0.05,1.19-0.05c0.48,0,0.88,0.02,1.19,0.05c0.3,0.04,0.56,0.09,0.74,0.16
		c0.19,0.06,0.33,0.15,0.4,0.25c0.08,0.1,0.12,0.21,0.12,0.34V370.76z M599.06,371.39l-2.11,5.85c-0.12,0.31-0.43,0.53-0.95,0.67
		c-0.52,0.13-1.28,0.2-2.28,0.2c-0.52,0-0.94-0.02-1.24-0.06c-0.31-0.04-0.54-0.11-0.7-0.22c-0.15-0.1-0.24-0.22-0.25-0.37
		c-0.01-0.15,0.02-0.33,0.12-0.54l2.32-5.54c-0.16-0.08-0.32-0.19-0.45-0.34c-0.14-0.16-0.24-0.32-0.31-0.49l-5.97-15.23
		c-0.17-0.43-0.25-0.77-0.25-0.99c0-0.23,0.08-0.41,0.23-0.54c0.15-0.13,0.42-0.22,0.78-0.27c0.37-0.05,0.86-0.08,1.47-0.08
		c0.55,0,0.99,0.01,1.32,0.02c0.33,0.02,0.58,0.07,0.76,0.14c0.18,0.07,0.32,0.19,0.4,0.35c0.09,0.15,0.18,0.37,0.27,0.66
		l4.09,11.09h0.06l3.72-11.31c0.08-0.32,0.18-0.54,0.3-0.65c0.12-0.1,0.33-0.18,0.61-0.23c0.29-0.05,0.79-0.08,1.51-0.08
		c0.56,0,1.03,0.02,1.4,0.08c0.37,0.05,0.64,0.14,0.82,0.28c0.17,0.13,0.26,0.32,0.26,0.54c0,0.23-0.05,0.5-0.15,0.81L599.06,371.39
		z M628.7,369.35c0,0.37-0.01,0.68-0.04,0.94c-0.03,0.25-0.09,0.46-0.15,0.63c-0.07,0.17-0.15,0.29-0.25,0.36
		c-0.1,0.07-0.21,0.11-0.34,0.11h-11.56c-0.43,0-0.78-0.12-1.08-0.36c-0.29-0.24-0.44-0.63-0.44-1.18v-21.81
		c0-0.12,0.04-0.24,0.13-0.34c0.09-0.1,0.22-0.18,0.42-0.24c0.19-0.06,0.46-0.11,0.79-0.15c0.33-0.04,0.74-0.06,1.24-0.06
		c0.5,0,0.93,0.02,1.25,0.06c0.32,0.04,0.59,0.08,0.78,0.15s0.33,0.15,0.42,0.24c0.09,0.1,0.13,0.22,0.13,0.34v19.32h7.93
		c0.13,0,0.25,0.03,0.34,0.1c0.1,0.07,0.18,0.18,0.25,0.34c0.06,0.15,0.11,0.35,0.15,0.61C628.69,368.66,628.7,368.97,628.7,369.35
		 M633.99,370.76c0,0.12-0.04,0.23-0.12,0.32c-0.07,0.09-0.2,0.17-0.4,0.23c-0.19,0.06-0.44,0.11-0.75,0.14
		c-0.31,0.03-0.71,0.04-1.19,0.04c-0.48,0-0.88-0.01-1.19-0.04c-0.31-0.03-0.56-0.08-0.74-0.14c-0.19-0.06-0.33-0.14-0.4-0.23
		c-0.08-0.09-0.12-0.2-0.12-0.32v-16.53c0-0.12,0.04-0.23,0.12-0.32c0.07-0.1,0.21-0.18,0.4-0.24c0.19-0.07,0.44-0.12,0.74-0.16
		c0.32-0.04,0.71-0.06,1.19-0.06c0.48,0,0.88,0.02,1.19,0.06c0.31,0.04,0.56,0.09,0.75,0.16c0.19,0.06,0.33,0.15,0.4,0.24
		c0.08,0.1,0.12,0.2,0.12,0.32V370.76z M634.39,348.56c0,0.95-0.2,1.59-0.61,1.95c-0.41,0.36-1.15,0.54-2.25,0.54
		c-1.1,0-1.86-0.17-2.23-0.52c-0.39-0.35-0.58-0.98-0.58-1.87c0-0.95,0.2-1.6,0.6-1.97c0.39-0.36,1.14-0.54,2.25-0.54
		c1.09,0,1.84,0.18,2.23,0.53C634.2,347.03,634.39,347.66,634.39,348.56 M664.19,370.76c0,0.12-0.04,0.23-0.12,0.32
		c-0.07,0.09-0.2,0.17-0.39,0.23c-0.19,0.06-0.43,0.11-0.74,0.14c-0.32,0.03-0.71,0.04-1.19,0.04c-0.5,0-0.91-0.01-1.22-0.04
		c-0.32-0.03-0.57-0.08-0.75-0.14c-0.19-0.06-0.32-0.14-0.39-0.23s-0.11-0.2-0.11-0.32v-9.82c0-0.56-0.05-1.06-0.17-1.52
		c-0.11-0.46-0.28-0.86-0.5-1.18c-0.23-0.33-0.52-0.58-0.85-0.77c-0.35-0.18-0.75-0.26-1.23-0.26c-0.59,0-1.18,0.21-1.77,0.65
		c-0.6,0.43-1.25,1.06-1.94,1.89v11.01c0,0.12-0.04,0.23-0.12,0.32c-0.07,0.09-0.21,0.17-0.4,0.23c-0.19,0.06-0.44,0.11-0.75,0.14
		c-0.32,0.03-0.71,0.04-1.17,0.04c-0.49,0-0.89-0.01-1.2-0.04c-0.31-0.03-0.57-0.08-0.75-0.14c-0.19-0.06-0.33-0.14-0.4-0.23
		c-0.08-0.09-0.12-0.2-0.12-0.32v-9.82c0-0.56-0.05-1.06-0.17-1.52c-0.11-0.46-0.27-0.86-0.5-1.18c-0.22-0.33-0.5-0.58-0.85-0.77
		c-0.35-0.18-0.76-0.26-1.23-0.26c-0.6,0-1.19,0.21-1.79,0.65c-0.6,0.43-1.25,1.06-1.93,1.89v11.01c0,0.12-0.04,0.23-0.12,0.32
		c-0.07,0.09-0.21,0.17-0.4,0.23c-0.19,0.06-0.44,0.11-0.75,0.14c-0.31,0.03-0.71,0.04-1.19,0.04c-0.48,0-0.88-0.01-1.19-0.04
		c-0.31-0.03-0.56-0.08-0.74-0.14c-0.19-0.06-0.33-0.14-0.4-0.23c-0.08-0.09-0.12-0.2-0.12-0.32v-16.57c0-0.12,0.03-0.23,0.1-0.32
		c0.06-0.1,0.18-0.17,0.34-0.23c0.17-0.06,0.39-0.11,0.65-0.14c0.27-0.03,0.61-0.04,1-0.04c0.42,0,0.76,0.01,1.03,0.04
		c0.27,0.03,0.48,0.08,0.64,0.14c0.15,0.06,0.25,0.14,0.32,0.23c0.07,0.1,0.1,0.2,0.1,0.32v1.91c0.96-0.99,1.92-1.72,2.88-2.22
		c0.96-0.49,1.96-0.74,2.99-0.74c0.72,0,1.36,0.07,1.93,0.22c0.57,0.14,1.08,0.34,1.53,0.61c0.45,0.26,0.83,0.58,1.16,0.95
		c0.33,0.37,0.6,0.79,0.82,1.24c0.52-0.53,1.03-0.99,1.53-1.37c0.5-0.38,1-0.7,1.48-0.94c0.48-0.24,0.97-0.42,1.47-0.53
		c0.48-0.12,0.98-0.18,1.49-0.18c1.15,0,2.13,0.18,2.92,0.56c0.79,0.37,1.43,0.88,1.92,1.52c0.49,0.63,0.84,1.38,1.04,2.23
		c0.21,0.86,0.31,1.76,0.31,2.71V370.76z M671.53,370.76c0,0.12-0.04,0.23-0.12,0.32c-0.07,0.09-0.2,0.17-0.4,0.23
		c-0.19,0.06-0.44,0.11-0.75,0.14c-0.31,0.03-0.71,0.04-1.19,0.04c-0.48,0-0.88-0.01-1.19-0.04c-0.31-0.03-0.56-0.08-0.74-0.14
		c-0.19-0.06-0.33-0.14-0.4-0.23c-0.08-0.09-0.12-0.2-0.12-0.32v-16.53c0-0.12,0.04-0.23,0.12-0.32c0.08-0.1,0.21-0.18,0.4-0.24
		c0.18-0.07,0.44-0.12,0.74-0.16c0.31-0.04,0.71-0.06,1.19-0.06c0.48,0,0.88,0.02,1.19,0.06c0.3,0.04,0.56,0.09,0.75,0.16
		c0.19,0.06,0.33,0.15,0.4,0.24c0.08,0.1,0.12,0.2,0.12,0.32V370.76z M671.93,348.56c0,0.95-0.2,1.59-0.61,1.95
		c-0.4,0.36-1.15,0.54-2.25,0.54c-1.1,0-1.86-0.17-2.24-0.52c-0.39-0.35-0.58-0.98-0.58-1.87c0-0.95,0.2-1.6,0.6-1.97
		c0.39-0.36,1.15-0.54,2.26-0.54c1.09,0,1.84,0.18,2.23,0.53C671.74,347.03,671.93,347.66,671.93,348.56 M684.36,369.13
		c0,0.55-0.03,0.96-0.11,1.25c-0.07,0.29-0.16,0.49-0.29,0.61c-0.11,0.12-0.29,0.23-0.51,0.32c-0.23,0.1-0.5,0.18-0.8,0.24
		c-0.3,0.07-0.63,0.12-0.99,0.16c-0.36,0.04-0.72,0.06-1.08,0.06c-0.97,0-1.82-0.12-2.54-0.35c-0.71-0.23-1.3-0.6-1.78-1.08
		c-0.47-0.49-0.81-1.1-1.03-1.85c-0.22-0.74-0.33-1.62-0.33-2.64v-8.48h-2.11c-0.25,0-0.44-0.15-0.56-0.44
		c-0.14-0.29-0.2-0.78-0.2-1.46c0-0.36,0.01-0.66,0.05-0.91c0.04-0.25,0.09-0.44,0.16-0.59c0.06-0.14,0.14-0.24,0.24-0.3
		c0.1-0.06,0.21-0.09,0.34-0.09h2.09v-3.71c0-0.12,0.03-0.23,0.11-0.34c0.07-0.1,0.2-0.18,0.39-0.24c0.18-0.07,0.45-0.12,0.76-0.15
		c0.32-0.03,0.71-0.04,1.19-0.04c0.48,0,0.88,0.01,1.2,0.04c0.32,0.03,0.57,0.08,0.76,0.15c0.18,0.07,0.31,0.15,0.38,0.24
		c0.08,0.1,0.12,0.22,0.12,0.34v3.71h3.78c0.13,0,0.24,0.03,0.34,0.09c0.1,0.06,0.18,0.17,0.24,0.3c0.07,0.15,0.12,0.34,0.15,0.59
		c0.03,0.25,0.04,0.55,0.04,0.91c0,0.68-0.07,1.17-0.19,1.46c-0.13,0.29-0.32,0.44-0.56,0.44h-3.8v7.78c0,0.91,0.15,1.58,0.45,2.03
		c0.3,0.45,0.83,0.68,1.6,0.68c0.26,0,0.49-0.02,0.7-0.06c0.21-0.05,0.39-0.1,0.55-0.15c0.17-0.05,0.3-0.1,0.41-0.14
		c0.1-0.04,0.21-0.06,0.3-0.06c0.08,0,0.15,0.02,0.22,0.06c0.07,0.04,0.13,0.13,0.17,0.26c0.03,0.13,0.07,0.3,0.11,0.53
		C684.34,368.5,684.36,368.78,684.36,369.13 M701.09,362v-0.74c0-1.17-0.15-2.24-0.47-3.23c-0.31-0.99-0.8-1.85-1.46-2.57
		c-0.66-0.72-1.51-1.29-2.55-1.7c-1.03-0.41-2.28-0.61-3.73-0.61c-1.38,0-2.62,0.22-3.72,0.65c-1.1,0.43-2.03,1.06-2.79,1.88
		c-0.78,0.83-1.36,1.83-1.76,3c-0.41,1.19-0.6,2.51-0.6,3.98c0,1.55,0.19,2.9,0.57,4.05c0.39,1.15,0.96,2.1,1.74,2.86
		c0.78,0.75,1.76,1.32,2.92,1.69c1.17,0.37,2.52,0.56,4.07,0.56c0.86,0,1.66-0.06,2.42-0.17c0.75-0.11,1.42-0.23,2-0.38
		c0.59-0.14,1.07-0.29,1.45-0.44c0.38-0.15,0.6-0.27,0.69-0.35c0.09-0.09,0.15-0.18,0.21-0.27c0.05-0.09,0.09-0.2,0.11-0.34
		c0.02-0.13,0.04-0.3,0.06-0.49c0.01-0.19,0.02-0.42,0.02-0.69c0-0.31-0.01-0.57-0.03-0.77c-0.02-0.2-0.06-0.36-0.11-0.47
		c-0.05-0.11-0.12-0.19-0.2-0.23c-0.07-0.05-0.18-0.06-0.3-0.06c-0.19,0-0.45,0.06-0.76,0.18c-0.32,0.12-0.71,0.24-1.18,0.39
		c-0.48,0.15-1.04,0.27-1.69,0.39c-0.65,0.12-1.4,0.18-2.26,0.18c-0.84,0-1.56-0.11-2.17-0.32c-0.61-0.21-1.1-0.51-1.49-0.91
		c-0.38-0.4-0.66-0.89-0.83-1.46c-0.18-0.58-0.27-1.21-0.27-1.91h10.6c0.47,0,0.84-0.14,1.1-0.41
		C700.95,362.99,701.09,362.57,701.09,362 M696.34,360.67h-7.35c0.03-0.58,0.12-1.13,0.29-1.65c0.16-0.51,0.39-0.96,0.7-1.34
		c0.31-0.38,0.69-0.68,1.16-0.9c0.46-0.22,1.01-0.34,1.63-0.34c1.24,0,2.15,0.37,2.74,1.13
		C696.1,358.33,696.38,359.36,696.34,360.67 M719.26,370.76c0,0.13-0.03,0.25-0.1,0.34c-0.06,0.1-0.17,0.17-0.33,0.23
		c-0.16,0.06-0.37,0.1-0.64,0.13c-0.27,0.03-0.6,0.04-0.98,0.04c-0.42,0-0.76-0.01-1.02-0.04c-0.26-0.03-0.47-0.07-0.63-0.13
		c-0.16-0.06-0.28-0.15-0.35-0.23c-0.07-0.1-0.11-0.21-0.11-0.35v-1.84c-0.89,0.92-1.84,1.63-2.82,2.14
		c-0.99,0.51-2.07,0.76-3.27,0.76c-1.33,0-2.45-0.25-3.36-0.73c-0.92-0.49-1.66-1.15-2.24-1.98c-0.58-0.82-1-1.79-1.26-2.9
		c-0.26-1.11-0.39-2.28-0.39-3.5c0-1.47,0.17-2.79,0.5-3.97c0.33-1.17,0.81-2.17,1.45-3c0.64-0.83,1.43-1.46,2.38-1.91
		c0.94-0.44,2.04-0.67,3.27-0.67c0.97,0,1.86,0.19,2.65,0.57c0.8,0.38,1.58,0.93,2.36,1.66v-8.95c0-0.13,0.03-0.24,0.11-0.34
		c0.07-0.1,0.2-0.18,0.39-0.25c0.19-0.07,0.44-0.12,0.75-0.16c0.31-0.04,0.71-0.06,1.19-0.06c0.48,0,0.88,0.02,1.19,0.06
		c0.31,0.04,0.56,0.09,0.74,0.16c0.18,0.06,0.31,0.15,0.39,0.25c0.08,0.1,0.12,0.21,0.12,0.34V370.76z M714.38,359.69
		c-0.7-0.84-1.38-1.48-2.02-1.93c-0.64-0.44-1.32-0.66-2.02-0.66c-0.63,0-1.19,0.15-1.65,0.46c-0.46,0.3-0.83,0.7-1.11,1.21
		c-0.28,0.51-0.49,1.08-0.63,1.7c-0.14,0.63-0.2,1.27-0.2,1.92c0,0.7,0.06,1.37,0.17,2.02c0.12,0.66,0.31,1.24,0.58,1.76
		s0.62,0.92,1.06,1.24c0.44,0.31,1,0.46,1.68,0.46c0.33,0,0.67-0.05,0.99-0.14c0.32-0.09,0.64-0.24,0.97-0.45
		c0.33-0.21,0.67-0.48,1.03-0.82c0.35-0.34,0.74-0.76,1.15-1.25V359.69z"/>
</g>
</svg>
