<svg xmlns="http://www.w3.org/2000/svg" width="27.496" height="27.496" viewBox="0 0 27.496 27.496">
  <g id="Group_11" data-name="Group 11" transform="translate(-1181.5 -515.5)">
    <g id="Ellipse_286-2" transform="translate(1181 515)">
      <circle id="Oval" cx="13.748" cy="13.748" r="13.748" transform="translate(0.5 0.5)" fill="#afd664"/>
    </g>
    <path id="Path_3-2" d="M5.442,10.872c-.209.007-.421.011-.629.011-.532,0-1.071-.024-1.6-.072a3.674,3.674,0,0,1-1.335-.249,2.368,2.368,0,0,1-.966-.6A2.316,2.316,0,0,1,.312,9a3.669,3.669,0,0,1-.24-1.327,18.16,18.16,0,0,1-.06-2.233,18.087,18.087,0,0,1,.06-2.228,2.734,2.734,0,0,1,.24-1.335,2.313,2.313,0,0,1,.6-.965,2.34,2.34,0,0,1,.971-.6A3.639,3.639,0,0,1,3.189.072h.023C3.742.024,4.281,0,4.813,0c.207,0,.418,0,.626.011S5.858,0,6.068,0c.532,0,1.071.024,1.6.072h.023A3.664,3.664,0,0,1,9,.312a2.4,2.4,0,0,1,.965.6,2.367,2.367,0,0,1,.608.973,3.762,3.762,0,0,1,.24,1.327,17.911,17.911,0,0,1,.06,2.228c0,.869-.022,1.277-.039,1.6v.012c-.014.231-.021.388-.021.617A3.736,3.736,0,0,1,10.569,9,2.522,2.522,0,0,1,9,10.571a3.716,3.716,0,0,1-1.3.24H7.675c-.534.048-1.074.072-1.6.072C5.862,10.883,5.65,10.879,5.442,10.872Zm-3.2-9.651a1.015,1.015,0,0,0-.6.423,2.192,2.192,0,0,0-.423.6,2.8,2.8,0,0,0-.18,1.026,17.176,17.176,0,0,0-.06,2.172c0,.907.023,1.319.041,1.619v.014c.011.187.018.336.018.536a2.8,2.8,0,0,0,.18,1.025A2.125,2.125,0,0,0,2.246,9.661a2.731,2.731,0,0,0,.978.18H3.27c.517.048,1.042.072,1.561.072.2,0,.407,0,.609-.011.9,0,1.317-.024,1.621-.041.193-.011.345-.02.551-.02h.046a2.736,2.736,0,0,0,.979-.18A2.131,2.131,0,0,0,9.662,8.635,2.826,2.826,0,0,0,9.841,7.61,17.043,17.043,0,0,0,9.9,5.439c0-.891-.025-1.309-.042-1.613V3.805c-.011-.187-.019-.336-.019-.536a2.858,2.858,0,0,0-.178-1.029A2.129,2.129,0,0,0,8.636,1.219a2.813,2.813,0,0,0-1-.183H7.611C7.095.989,6.569.965,6.051.965c-.2,0-.41,0-.611.011S5.053.965,4.859.965c-.527,0-1.063.026-1.6.077H3.217A2.75,2.75,0,0,0,2.239,1.221Zm.426,4.217a2.742,2.742,0,0,1,.8-1.974,2.713,2.713,0,0,1,1.931-.8h.043A2.773,2.773,0,1,1,2.665,5.439ZM4.151,4.151a1.808,1.808,0,0,0,1.255,3.1h.063a1.784,1.784,0,0,0,1.257-.521,1.76,1.76,0,0,0,.52-1.289,1.758,1.758,0,0,0-.52-1.288A1.781,1.781,0,0,0,5.471,3.63H5.406A1.788,1.788,0,0,0,4.151,4.151ZM7.672,2.544a.663.663,0,1,1,.662.663A.663.663,0,0,1,7.672,2.544Z" transform="translate(1190 523.945)" fill="#fff"/>
  </g>
</svg>
