<svg id="Group_3" data-name="Group 3" xmlns="http://www.w3.org/2000/svg" xmlns:xlink="http://www.w3.org/1999/xlink" width="37" height="37" viewBox="0 0 37 37">
  <defs>
    <clipPath id="clip-path">
      <rect id="Rectangle" width="37" height="37" fill="#126d39"/>
    </clipPath>
  </defs>
  <g id="Group_13_Copy_3" data-name="Group 13 Copy 3">
    <rect id="Rectangle-2" data-name="Rectangle" width="37" height="37" fill="#126d39"/>
    <g id="Group_13_Copy_3-2" data-name="Group 13 Copy 3" clip-path="url(#clip-path)">
      <circle id="Oval" cx="23.51" cy="23.51" r="23.51" transform="translate(6.938 6.167)" fill="#003f1b" opacity="0.512"/>
    </g>
  </g>
  <g id="Group_26" data-name="Group 26" transform="translate(12.333 10.792)">
    <g id="Light">
      <path id="Shape" d="M7.091,14.646v-.77a.707.707,0,0,1,.617-.771.706.706,0,0,1,.616.771v.77a.706.706,0,0,1-.616.771A.707.707,0,0,1,7.091,14.646Zm5.423-1.26-.539-.539a.706.706,0,0,1-.111-.981.708.708,0,0,1,.982.11l.539.539a.707.707,0,0,1,.11.981.545.545,0,0,1-.391.152A.852.852,0,0,1,12.514,13.386Zm-10.593.108a.706.706,0,0,1,.11-.98l.54-.54a.707.707,0,0,1,.98-.11.708.708,0,0,1-.11.982l-.539.539a.848.848,0,0,1-.589.262A.546.546,0,0,1,1.921,13.494ZM3.469,7.709a4.239,4.239,0,1,1,4.24,4.239A4.222,4.222,0,0,1,3.469,7.709Zm10.422.616a.706.706,0,0,1-.771-.616.707.707,0,0,1,.771-.617h.755a.709.709,0,0,1,.771.617.707.707,0,0,1-.771.616Zm-13.12,0A.706.706,0,0,1,0,7.709a.707.707,0,0,1,.77-.617h.771a.708.708,0,0,1,.77.617.706.706,0,0,1-.77.616Zm11.1-4.772a.709.709,0,0,1,.109-.982l.54-.538a.706.706,0,0,1,.98-.111.707.707,0,0,1-.109.982l-.539.538a.853.853,0,0,1-.591.263A.541.541,0,0,1,11.866,3.552Zm-9.3-.111L2.03,2.9a.711.711,0,0,1-.109-.983.708.708,0,0,1,.982.111l.538.539a.709.709,0,0,1,.109.982A.54.54,0,0,1,3.16,3.7.855.855,0,0,1,2.569,3.442Zm4.522-1.9V.77A.707.707,0,0,1,7.709,0a.706.706,0,0,1,.616.77v.771a.705.705,0,0,1-.616.77A.706.706,0,0,1,7.091,1.542Z" fill="#fff"/>
    </g>
  </g>
</svg>
