<svg xmlns="http://www.w3.org/2000/svg" width="27.496" height="27.496" viewBox="0 0 27.496 27.496">
  <g id="Group_13" data-name="Group 13" transform="translate(0 0)">
    <circle id="Oval" cx="13.748" cy="13.748" r="13.748" transform="translate(0 0)" fill="#54a9d2"/>
    <path id="in" d="M11.056,12.432V7.744a1.6,1.6,0,0,0-1.7-1.76A1.994,1.994,0,0,0,7.392,8.192v4.24H4.928V3.824H7.392v1.5a3.215,3.215,0,0,1,2.976-1.6,3.014,3.014,0,0,1,3.152,3.3v5.408ZM.1,12.432V3.824H2.56v8.608ZM0,1.376A1.3,1.3,0,0,1,1.328,0,1.3,1.3,0,0,1,2.656,1.376,1.3,1.3,0,0,1,1.328,2.752,1.3,1.3,0,0,1,0,1.376Z" transform="translate(6.534 6.188)" fill="#fff"/>
  </g>
</svg>
