<svg xmlns="http://www.w3.org/2000/svg" width="27.496" height="27.496" viewBox="0 0 27.496 27.496">
  <g id="Ellipse_287-2" transform="translate(-0.5 -0.5)">
    <circle id="Oval" cx="13.748" cy="13.748" r="13.748" transform="translate(0.5 0.5)" fill="#84c590"/>
    <path id="Path_2-2" d="M4.238,10.856a7.738,7.738,0,0,0,7.807-7.807V2.677a6.044,6.044,0,0,0,1.338-1.413,6.172,6.172,0,0,1-1.561.446A2.893,2.893,0,0,0,13.012.223,6.82,6.82,0,0,1,11.3.892,2.655,2.655,0,0,0,9.294,0,2.794,2.794,0,0,0,6.543,2.751a1.449,1.449,0,0,0,.074.6A7.687,7.687,0,0,1,.966.446,2.847,2.847,0,0,0,.594,1.859a2.954,2.954,0,0,0,1.19,2.3A2.507,2.507,0,0,1,.52,3.787h0A2.717,2.717,0,0,0,2.751,6.464a2.292,2.292,0,0,1-.744.074,1.265,1.265,0,0,1-.52-.074A2.817,2.817,0,0,0,4.087,8.4a5.614,5.614,0,0,1-3.42,1.19A2.059,2.059,0,0,1,0,9.517a7.018,7.018,0,0,0,4.238,1.338" transform="translate(7.599 8.956)" fill="#fff"/>
  </g>
</svg>
